<svg xmlns="http://www.w3.org/2000/svg" viewBox="0 0 400 400"><path fill="rgba(0,0,0,0.5)" d="M173.4 243.2L144 209.6c-8.1-9.3-2.1-20.1-5.6-17-3.5 3-14 15.9-1.4 30.3l22.3 25.5c12.5 14.3 26.3 5.1 29.7 2.1 3.6-3-7.8 1.6-15.6-7.3zM277.3 180.1c-1.6-2.9-9-5-15-1.6-2.9 1.6-13.1 6.2-22.9 10.7-7.1-18.4-21-43.4-25.1-48.1-6.3-7.2-28.4 12.4-30.8 11.1-2.3-1.3 1.9-35.5-21.6-39.6-5.5-1 2.1 25.8-3.1 45.5-2.9 10.9-10.4 35.2-5.5 40.8l31.5 36c5.5 6.3 34.2-7 53.9-22.9 13.2-8 33.6-19.5 33.6-19.5s9-7 5-12.4z"/></svg>