<?xml version="1.0" encoding="utf-8"?>
<svg version="1.1" id="Layer_1" xmlns="http://www.w3.org/2000/svg" xmlns:xlink="http://www.w3.org/1999/xlink" x="0px" y="0px"
	 viewBox="0 0 400 400" enable-background="new 0 0 400 400" xml:space="preserve">
<g>
	<path fill="rgba(0,0,0,0.5)" d="M173.4,243.2l-29.4-33.6c-8.1-9.3-2.1-20.1-5.6-17c-3.5,3-14,15.9-1.4,30.3l22.3,25.5
		c12.5,14.3,26.3,5.1,29.7,2.1C192.6,247.5,181.2,252.1,173.4,243.2z"/>
	<path fill="rgba(0,0,0,0.5)" d="M277.3,180.1c-1.6-2.9-9-5-15-1.6c-2.9,1.6-13.1,6.2-22.9,10.7c-7.1-18.4-21-43.4-25.1-48.1
		c-6.3-7.2-28.4,12.4-30.8,11.1c-2.3-1.3,1.9-35.5-21.6-39.6c-5.5-1,2.1,25.8-3.1,45.5c-2.9,10.9-10.4,35.2-5.5,40.8l31.5,36
		c5.5,6.3,34.2-7,53.9-22.9c13.2-8,33.6-19.5,33.6-19.5S281.3,185.5,277.3,180.1z"/>
</g>
</svg>
